<?xml version="1.0" encoding="utf-8"?>
<!-- Generator: Adobe Illustrator 25.0.0, SVG Export Plug-In . SVG Version: 6.00 Build 0)  -->
<svg version="1.1" id="Layer_1" xmlns="http://www.w3.org/2000/svg" xmlns:xlink="http://www.w3.org/1999/xlink" x="0px" y="0px"
	 viewBox="0 0 85.33 81.02" style="enable-background:new 0 0 85.33 81.02;" xml:space="preserve">
<style type="text/css">
	.st0{fill-rule:evenodd;clip-rule:evenodd;fill:#CB2026;}
	.st1{fill:#FFFFFF;stroke:#FFFFFF;stroke-width:0.231;stroke-miterlimit:5.2509;}
</style>
<g>
	<circle id="SVGID_1_" class="st0" cx="44.82" cy="40.51" r="40.51"/>
	<path class="st1" d="M44.61,51.64c-8.3-8.6-15.39-16.32-19.13-16.48C22.69,35.03,10.05,47.37,0,54.76
		c3.08-2.33,20.99-21.04,24.72-23.91c2.25-1.72,5.57,0.1,15.39,8.38c4.36-17.5,6.23-23.36,9.68-23.02
		c4.67,0.45,29.77,6.83,33.63,7.18c-12.44-0.94-29.53-4.97-31.7-3.22c-2.58,2.09-5.87,18.06-7.32,23.44
		c2.33,2.33,2.59,2.68,4.12,4.26C49.12,48.49,45.16,52.22,44.61,51.64z"/>
</g>
</svg>
